<svg xmlns="http://www.w3.org/2000/svg" width="720" height="330" viewBox="0 0 720 330" role="img" aria-label="Deving Gene VoiceOps sanitized telemetry card">
<style>
.bg{fill:#0b1020}.panel{fill:#111827;stroke:#263244;stroke-width:1}.title{fill:#f8fafc;font:700 24px Arial,sans-serif}.sub{fill:#a7b3c7;font:400 13px Arial,sans-serif}.metric{fill:#f8fafc;font:700 22px Arial,sans-serif}.label{fill:#93a4bb;font:400 12px Arial,sans-serif}.small{fill:#cbd5e1;font:400 12px Arial,sans-serif}.track{fill:#263244}.bar{fill:#38bdf8}
</style>
<rect width="720" height="330" rx="14" class="bg"/>
<rect x="18" y="18" width="684" height="294" rx="10" class="panel"/>
<text x="36" y="58" class="title">Deving Gene VoiceOps</text>
<text x="36" y="82" class="sub">Sanitized Alexa IntentOps signal</text>
<text x="36" y="128" class="metric">3350</text>
<text x="36" y="148" class="label">allowed intents, 7d</text>
<text x="205" y="128" class="metric">98.5%</text>
<text x="205" y="148" class="label">success, 7d</text>
<text x="374" y="128" class="metric">0</text>
<text x="374" y="148" class="label">pending reviews</text>
<text x="528" y="128" class="metric">0</text>
<text x="528" y="148" class="label">policy-blocked</text>
<text x="36" y="184" class="small">Avg handler duration: 0 ms</text>
<text x="290" y="184" class="small">Top intent: RoomOccupancyIntent</text>
<text x="28" y="212" class="small">Today</text><rect x="123" y="202" width="170" height="8" rx="3" class="track"/><rect x="123" y="202" width="170" height="8" rx="3" class="bar"/><text x="305" y="212" class="small">3350</text>
<text x="28" y="236" class="small">Yesterday</text><rect x="123" y="226" width="170" height="8" rx="3" class="track"/><rect x="123" y="226" width="170" height="8" rx="3" class="bar"/><text x="305" y="236" class="small">3350</text>
<text x="28" y="260" class="small">Last 7d</text><rect x="123" y="250" width="170" height="8" rx="3" class="track"/><rect x="123" y="250" width="170" height="8" rx="3" class="bar"/><text x="305" y="260" class="small">3350</text>
<text x="28" y="284" class="small">Last 30d</text><rect x="123" y="274" width="170" height="8" rx="3" class="track"/><rect x="123" y="274" width="170" height="8" rx="3" class="bar"/><text x="305" y="284" class="small">3350</text>
<text x="28" y="306" class="label">Public aggregate only. No raw voice content, private paths, tunnels, or credentials.</text>
</svg>
